<svg xmlns="http://www.w3.org/2000/svg" xmlns:xlink="http://www.w3.org/1999/xlink" contentStyleType="text/css" height="958px" preserveAspectRatio="none" style="width:1739px;height:958px;background:#FFFFFF;" version="1.1" viewBox="0 0 1739 958" width="1739px" zoomAndPan="magnify"><title>The request path &#8212; eight steps in a fixed order</title><defs/><g><text fill="#000000" font-family="sans-serif" font-size="14" font-weight="bold" lengthAdjust="spacing" textLength="342.8701" x="697.3906" y="28.5352">The request path &#8212; eight steps in a fixed order</text><rect fill="#FFFFFF" height="35.3105" style="stroke:#181818;stroke-width:1.0;" width="10" x="215.124" y="150.2871"/><rect fill="#FFFFFF" height="102.2422" style="stroke:#181818;stroke-width:1.0;" width="10" x="447.666" y="221.9082"/><rect fill="#FFFFFF" height="102.2422" style="stroke:#181818;stroke-width:1.0;" width="10" x="699.0796" y="353.4609"/><rect fill="#FFFFFF" height="29.3105" style="stroke:#181818;stroke-width:1.0;" width="10" x="1187.3281" y="604.5664"/><rect fill="#FFFFFF" height="71.6211" style="stroke:#181818;stroke-width:1.0;" width="10" x="1374.2832" y="714.4531"/><rect fill="none" height="120.1973" style="stroke:#000000;stroke-width:1.5;" width="1147.3457" x="164.1489" y="565.9453"/><line style="stroke:#181818;stroke-width:0.5;stroke-dasharray:5.0,5.0;" x1="27" x2="27" y1="118.9766" y2="878.0059"/><line style="stroke:#181818;stroke-width:0.5;stroke-dasharray:5.0,5.0;" x1="219.1489" x2="219.1489" y1="118.9766" y2="878.0059"/><line style="stroke:#181818;stroke-width:0.5;stroke-dasharray:5.0,5.0;" x1="452.5371" x2="452.5371" y1="118.9766" y2="878.0059"/><line style="stroke:#181818;stroke-width:0.5;stroke-dasharray:5.0,5.0;" x1="703.9199" x2="703.9199" y1="118.9766" y2="878.0059"/><line style="stroke:#181818;stroke-width:0.5;stroke-dasharray:5.0,5.0;" x1="987.9106" x2="987.9106" y1="118.9766" y2="878.0059"/><line style="stroke:#181818;stroke-width:0.5;stroke-dasharray:5.0,5.0;" x1="1192.1616" x2="1192.1616" y1="118.9766" y2="878.0059"/><line style="stroke:#181818;stroke-width:0.5;stroke-dasharray:5.0,5.0;" x1="1378.4946" x2="1378.4946" y1="118.9766" y2="878.0059"/><line style="stroke:#181818;stroke-width:0.5;stroke-dasharray:5.0,5.0;" x1="1672.4707" x2="1672.4707" y1="118.9766" y2="878.0059"/><text fill="#000000" font-family="sans-serif" font-size="14" lengthAdjust="spacing" textLength="39.5049" x="5" y="116.0234">Client</text><ellipse cx="27.7524" cy="50.9883" fill="#E2E2F0" rx="8" ry="8" style="stroke:#181818;stroke-width:0.5;"/><path d="M27.7524,58.9883 L27.7524,85.9883 M14.7524,66.9883 L40.7524,66.9883 M27.7524,85.9883 L14.7524,100.9883 M27.7524,85.9883 L40.7524,100.9883 " fill="none" style="stroke:#181818;stroke-width:0.5;"/><text fill="#000000" font-family="sans-serif" font-size="14" lengthAdjust="spacing" textLength="39.5049" x="5" y="890.541">Client</text><ellipse cx="27.7524" cy="901.9941" fill="#E2E2F0" rx="8" ry="8" style="stroke:#181818;stroke-width:0.5;"/><path d="M27.7524,909.9941 L27.7524,936.9941 M14.7524,917.9941 L40.7524,917.9941 M27.7524,936.9941 L14.7524,951.9941 M27.7524,936.9941 L40.7524,951.9941 " fill="none" style="stroke:#181818;stroke-width:0.5;"/><rect fill="#E2E2F0" height="46.9766" rx="2.5" ry="2.5" style="stroke:#181818;stroke-width:0.5;" width="91.9502" x="174.1489" y="71"/><text fill="#000000" font-family="sans-serif" font-size="14" lengthAdjust="spacing" textLength="77.9502" x="181.1489" y="91.5352">prompts.py</text><text fill="#000000" font-family="sans-serif" font-size="14" lengthAdjust="spacing" textLength="51.1328" x="194.5576" y="108.0234">excerpt</text><rect fill="#E2E2F0" height="46.9766" rx="2.5" ry="2.5" style="stroke:#181818;stroke-width:0.5;" width="91.9502" x="174.1489" y="877.0059"/><text fill="#000000" font-family="sans-serif" font-size="14" lengthAdjust="spacing" textLength="77.9502" x="181.1489" y="897.541">prompts.py</text><text fill="#000000" font-family="sans-serif" font-size="14" lengthAdjust="spacing" textLength="51.1328" x="194.5576" y="914.0293">excerpt</text><rect fill="#E2E2F0" height="46.9766" rx="2.5" ry="2.5" style="stroke:#181818;stroke-width:0.5;" width="162.2578" x="371.5371" y="71"/><text fill="#000000" font-family="sans-serif" font-size="14" lengthAdjust="spacing" textLength="50.0527" x="427.6396" y="91.5352">gate.py</text><text fill="#000000" font-family="sans-serif" font-size="14" lengthAdjust="spacing" textLength="148.2578" x="378.5371" y="108.0234">layer 1 (deterministic)</text><rect fill="#E2E2F0" height="46.9766" rx="2.5" ry="2.5" style="stroke:#181818;stroke-width:0.5;" width="162.2578" x="371.5371" y="877.0059"/><text fill="#000000" font-family="sans-serif" font-size="14" lengthAdjust="spacing" textLength="50.0527" x="427.6396" y="897.541">gate.py</text><text fill="#000000" font-family="sans-serif" font-size="14" lengthAdjust="spacing" textLength="148.2578" x="378.5371" y="914.0293">layer 1 (deterministic)</text><rect fill="#E2E2F0" height="46.9766" rx="2.5" ry="2.5" style="stroke:#181818;stroke-width:0.5;" width="134.3193" x="636.9199" y="71"/><text fill="#000000" font-family="sans-serif" font-size="14" lengthAdjust="spacing" textLength="117.9336" x="645.1128" y="91.5352">gate_semantic.py</text><text fill="#000000" font-family="sans-serif" font-size="14" lengthAdjust="spacing" textLength="120.3193" x="643.9199" y="108.0234">layer 2 (semantic)</text><rect fill="#E2E2F0" height="46.9766" rx="2.5" ry="2.5" style="stroke:#181818;stroke-width:0.5;" width="134.3193" x="636.9199" y="877.0059"/><text fill="#000000" font-family="sans-serif" font-size="14" lengthAdjust="spacing" textLength="117.9336" x="645.1128" y="897.541">gate_semantic.py</text><text fill="#000000" font-family="sans-serif" font-size="14" lengthAdjust="spacing" textLength="120.3193" x="643.9199" y="914.0293">layer 2 (semantic)</text><rect fill="#E2E2F0" height="30.4883" rx="2.5" ry="2.5" style="stroke:#181818;stroke-width:0.5;" width="73.1172" x="951.9106" y="87.4883"/><text fill="#000000" font-family="sans-serif" font-size="14" lengthAdjust="spacing" textLength="59.1172" x="958.9106" y="108.0234">cache.py</text><rect fill="#E2E2F0" height="30.4883" rx="2.5" ry="2.5" style="stroke:#181818;stroke-width:0.5;" width="73.1172" x="951.9106" y="877.0059"/><text fill="#000000" font-family="sans-serif" font-size="14" lengthAdjust="spacing" textLength="59.1172" x="958.9106" y="897.541">cache.py</text><rect fill="#E2E2F0" height="46.9766" rx="2.5" ry="2.5" style="stroke:#181818;stroke-width:0.5;" width="218.333" x="1083.1616" y="71"/><text fill="#000000" font-family="sans-serif" font-size="14" lengthAdjust="spacing" textLength="57.1963" x="1163.73" y="91.5352">backend</text><text fill="#000000" font-family="sans-serif" font-size="14" lengthAdjust="spacing" textLength="204.333" x="1090.1616" y="108.0234">jev | mock | distilled | shadow</text><rect fill="#E2E2F0" height="46.9766" rx="2.5" ry="2.5" style="stroke:#181818;stroke-width:0.5;" width="218.333" x="1083.1616" y="877.0059"/><text fill="#000000" font-family="sans-serif" font-size="14" lengthAdjust="spacing" textLength="57.1963" x="1163.73" y="897.541">backend</text><text fill="#000000" font-family="sans-serif" font-size="14" lengthAdjust="spacing" textLength="204.333" x="1090.1616" y="914.0293">jev | mock | distilled | shadow</text><rect fill="#E2E2F0" height="46.9766" rx="2.5" ry="2.5" style="stroke:#181818;stroke-width:0.5;" width="135.5771" x="1311.4946" y="71"/><text fill="#000000" font-family="sans-serif" font-size="14" lengthAdjust="spacing" textLength="60.5459" x="1349.0103" y="91.5352">policy.py</text><text fill="#000000" font-family="sans-serif" font-size="14" lengthAdjust="spacing" textLength="121.5771" x="1318.4946" y="108.0234">rules + escalation</text><rect fill="#E2E2F0" height="46.9766" rx="2.5" ry="2.5" style="stroke:#181818;stroke-width:0.5;" width="135.5771" x="1311.4946" y="877.0059"/><text fill="#000000" font-family="sans-serif" font-size="14" lengthAdjust="spacing" textLength="60.5459" x="1349.0103" y="897.541">policy.py</text><text fill="#000000" font-family="sans-serif" font-size="14" lengthAdjust="spacing" textLength="121.5771" x="1318.4946" y="914.0293">rules + escalation</text><rect fill="#E2E2F0" height="46.9766" rx="2.5" ry="2.5" style="stroke:#181818;stroke-width:0.5;" width="121.1807" x="1612.4707" y="71"/><text fill="#000000" font-family="sans-serif" font-size="14" lengthAdjust="spacing" textLength="107.1807" x="1619.4707" y="91.5352">logging_sink.py</text><text fill="#000000" font-family="sans-serif" font-size="14" lengthAdjust="spacing" textLength="100.5977" x="1622.7622" y="108.0234">decisions.jsonl</text><rect fill="#E2E2F0" height="46.9766" rx="2.5" ry="2.5" style="stroke:#181818;stroke-width:0.5;" width="121.1807" x="1612.4707" y="877.0059"/><text fill="#000000" font-family="sans-serif" font-size="14" lengthAdjust="spacing" textLength="107.1807" x="1619.4707" y="897.541">logging_sink.py</text><text fill="#000000" font-family="sans-serif" font-size="14" lengthAdjust="spacing" textLength="100.5977" x="1622.7622" y="914.0293">decisions.jsonl</text><rect fill="#FFFFFF" height="35.3105" style="stroke:#181818;stroke-width:1.0;" width="10" x="215.124" y="150.2871"/><rect fill="#FFFFFF" height="102.2422" style="stroke:#181818;stroke-width:1.0;" width="10" x="447.666" y="221.9082"/><rect fill="#FFFFFF" height="102.2422" style="stroke:#181818;stroke-width:1.0;" width="10" x="699.0796" y="353.4609"/><rect fill="#FFFFFF" height="29.3105" style="stroke:#181818;stroke-width:1.0;" width="10" x="1187.3281" y="604.5664"/><rect fill="#FFFFFF" height="71.6211" style="stroke:#181818;stroke-width:1.0;" width="10" x="1374.2832" y="714.4531"/><polygon fill="#181818" points="203.124,146.2871,213.124,150.2871,203.124,154.2871,207.124,150.2871" style="stroke:#181818;stroke-width:1.0;"/><line style="stroke:#181818;stroke-width:1.0;" x1="27.7524" x2="209.124" y1="150.2871" y2="150.2871"/><text fill="#000000" font-family="sans-serif" font-size="13" lengthAdjust="spacing" textLength="168.3716" x="34.7524" y="145.5449">request (messages or text)</text><line style="stroke:#181818;stroke-width:1.0;stroke-dasharray:2.0,2.0;" x1="225.124" x2="267.124" y1="184.5977" y2="184.5977"/><line style="stroke:#181818;stroke-width:1.0;stroke-dasharray:2.0,2.0;" x1="267.124" x2="267.124" y1="184.5977" y2="197.5977"/><line style="stroke:#181818;stroke-width:1.0;stroke-dasharray:2.0,2.0;" x1="220.124" x2="267.124" y1="197.5977" y2="197.5977"/><polygon fill="#181818" points="230.124,193.5977,220.124,197.5977,230.124,201.5977,226.124,197.5977" style="stroke:#181818;stroke-width:1.0;"/><text fill="#000000" font-family="sans-serif" font-size="13" lengthAdjust="spacing" textLength="198.542" x="232.124" y="179.8555">bounded slice, max 4000 chars</text><polygon fill="#181818" points="435.666,217.9082,445.666,221.9082,435.666,225.9082,439.666,221.9082" style="stroke:#181818;stroke-width:1.0;"/><line style="stroke:#181818;stroke-width:1.0;" x1="220.124" x2="441.666" y1="221.9082" y2="221.9082"/><text fill="#000000" font-family="sans-serif" font-size="13" lengthAdjust="spacing" textLength="32.7603" x="227.124" y="217.166">scan(</text><text fill="#000000" font-family="sans-serif" font-size="13" font-weight="bold" lengthAdjust="spacing" textLength="24.7686" x="259.8843" y="217.166">raw</text><text fill="#000000" font-family="sans-serif" font-size="13" lengthAdjust="spacing" textLength="51.708" x="288.7661" y="217.166">excerpt)</text><line style="stroke:#181818;stroke-width:1.0;stroke-dasharray:2.0,2.0;" x1="457.666" x2="499.666" y1="266.5293" y2="266.5293"/><line style="stroke:#181818;stroke-width:1.0;stroke-dasharray:2.0,2.0;" x1="499.666" x2="499.666" y1="266.5293" y2="279.5293"/><line style="stroke:#181818;stroke-width:1.0;stroke-dasharray:2.0,2.0;" x1="458.666" x2="499.666" y1="279.5293" y2="279.5293"/><polygon fill="#181818" points="468.666,275.5293,458.666,279.5293,468.666,283.5293,464.666,279.5293" style="stroke:#181818;stroke-width:1.0;"/><text fill="#000000" font-family="sans-serif" font-size="13" lengthAdjust="spacing" textLength="217.4136" x="464.666" y="246.4766">22 detectors: Luhn, IBAN mod-97,</text><text fill="#000000" font-family="sans-serif" font-size="13" lengthAdjust="spacing" textLength="179.5117" x="464.666" y="261.7871">NHS mod-11, NINO rules, ...</text><polygon fill="#181818" points="231.124,320.1504,221.124,324.1504,231.124,328.1504,227.124,324.1504" style="stroke:#181818;stroke-width:1.0;"/><line style="stroke:#181818;stroke-width:1.0;stroke-dasharray:2.0,2.0;" x1="225.124" x2="451.666" y1="324.1504" y2="324.1504"/><text fill="#000000" font-family="sans-serif" font-size="13" lengthAdjust="spacing" textLength="181.6826" x="237.124" y="304.0977">GateVerdict (findings, floors,</text><text fill="#000000" font-family="sans-serif" font-size="13" lengthAdjust="spacing" textLength="180.6987" x="237.124" y="319.4082">force_local, blocks_backend)</text><polygon fill="#181818" points="687.0796,349.4609,697.0796,353.4609,687.0796,357.4609,691.0796,353.4609" style="stroke:#181818;stroke-width:1.0;"/><line style="stroke:#181818;stroke-width:1.0;" x1="220.124" x2="693.0796" y1="353.4609" y2="353.4609"/><text fill="#000000" font-family="sans-serif" font-size="13" lengthAdjust="spacing" textLength="45.1572" x="227.124" y="348.7188">assess(</text><text fill="#000000" font-family="sans-serif" font-size="13" font-weight="bold" lengthAdjust="spacing" textLength="24.7686" x="272.2813" y="348.7188">raw</text><text fill="#000000" font-family="sans-serif" font-size="13" lengthAdjust="spacing" textLength="181.7588" x="301.1631" y="348.7188">excerpt) &#8212; local, no network</text><line style="stroke:#181818;stroke-width:1.0;stroke-dasharray:2.0,2.0;" x1="709.0796" x2="751.0796" y1="413.3926" y2="413.3926"/><line style="stroke:#181818;stroke-width:1.0;stroke-dasharray:2.0,2.0;" x1="751.0796" x2="751.0796" y1="413.3926" y2="426.3926"/><line style="stroke:#181818;stroke-width:1.0;stroke-dasharray:2.0,2.0;" x1="710.0796" x2="751.0796" y1="426.3926" y2="426.3926"/><polygon fill="#181818" points="720.0796,422.3926,710.0796,426.3926,720.0796,430.3926,716.0796,426.3926" style="stroke:#181818;stroke-width:1.0;"/><text fill="#000000" font-family="sans-serif" font-size="13" lengthAdjust="spacing" textLength="250.3896" x="716.0796" y="378.0293">shadow: scores + records, never blocks</text><text fill="#000000" font-family="sans-serif" font-size="13" lengthAdjust="spacing" textLength="204.8071" x="716.0796" y="393.3398">enforce: may raise floor, only on</text><text fill="#000000" font-family="sans-serif" font-size="13" lengthAdjust="spacing" textLength="110.208" x="716.0796" y="408.6504">measured criteria</text><polygon fill="#181818" points="231.124,451.7031,221.124,455.7031,231.124,459.7031,227.124,455.7031" style="stroke:#181818;stroke-width:1.0;"/><line style="stroke:#181818;stroke-width:1.0;stroke-dasharray:2.0,2.0;" x1="225.124" x2="703.0796" y1="455.7031" y2="455.7031"/><text fill="#000000" font-family="sans-serif" font-size="13" lengthAdjust="spacing" textLength="131.936" x="237.124" y="450.9609">SemanticAssessment</text><path d="M39,468.7031 L39,523.7031 L401,523.7031 L401,478.7031 L391,468.7031 L39,468.7031 " fill="#FEFFDD" style="stroke:#181818;stroke-width:0.5;"/><path d="M391,468.7031 L391,478.7031 L401,478.7031 L391,468.7031 " fill="#FEFFDD" style="stroke:#181818;stroke-width:0.5;"/><text fill="#000000" font-family="sans-serif" font-size="13" font-weight="bold" lengthAdjust="spacing" textLength="124.4204" x="45" y="486.2715">TRUST BOUNDARY</text><text fill="#000000" font-family="sans-serif" font-size="13" lengthAdjust="spacing" textLength="202.7251" x="173.5337" y="486.2715">&#8212; if either layer blocks, nothing</text><text fill="#000000" font-family="sans-serif" font-size="13" lengthAdjust="spacing" textLength="311.105" x="45" y="501.582">crosses. Otherwise only the *redacted* excerpt +</text><text fill="#000000" font-family="sans-serif" font-size="13" lengthAdjust="spacing" textLength="341.0723" x="45" y="516.8926">deterministic features + allowlisted metadata may go.</text><polygon fill="#181818" points="976.4692,546.9453,986.4692,550.9453,976.4692,554.9453,980.4692,550.9453" style="stroke:#181818;stroke-width:1.0;"/><line style="stroke:#181818;stroke-width:1.0;" x1="220.124" x2="982.4692" y1="550.9453" y2="550.9453"/><text fill="#000000" font-family="sans-serif" font-size="13" lengthAdjust="spacing" textLength="365.4473" x="227.124" y="546.2031">lookup (policy version, backend, redacted excerpt, topics)</text><path d="M164.1489,565.9453 L226.2876,565.9453 L226.2876,573.2559 L216.2876,583.2559 L164.1489,583.2559 L164.1489,565.9453 " fill="#EEEEEE" style="stroke:#000000;stroke-width:1.5;"/><rect fill="none" height="120.1973" style="stroke:#000000;stroke-width:1.5;" width="1147.3457" x="164.1489" y="565.9453"/><text fill="#000000" font-family="sans-serif" font-size="13" font-weight="bold" lengthAdjust="spacing" textLength="17.1387" x="179.1489" y="579.5137">alt</text><text fill="#000000" font-family="sans-serif" font-size="11" font-weight="bold" lengthAdjust="spacing" textLength="70.3076" x="241.2876" y="578.5801">[cache miss]</text><polygon fill="#181818" points="1175.3281,600.5664,1185.3281,604.5664,1175.3281,608.5664,1179.3281,604.5664" style="stroke:#181818;stroke-width:1.0;"/><line style="stroke:#181818;stroke-width:1.0;" x1="988.4692" x2="1181.3281" y1="604.5664" y2="604.5664"/><text fill="#000000" font-family="sans-serif" font-size="13" lengthAdjust="spacing" textLength="123.4746" x="995.4692" y="599.8242">decide(4 questions)</text><polygon fill="#181818" points="999.4692,629.877,989.4692,633.877,999.4692,637.877,995.4692,633.877" style="stroke:#181818;stroke-width:1.0;"/><line style="stroke:#181818;stroke-width:1.0;stroke-dasharray:2.0,2.0;" x1="993.4692" x2="1191.3281" y1="633.877" y2="633.877"/><text fill="#000000" font-family="sans-serif" font-size="13" lengthAdjust="spacing" textLength="174.8589" x="1005.4692" y="629.1348">calibrated soft distributions</text><line style="stroke:#000000;stroke-width:1.0;stroke-dasharray:2.0,2.0;" x1="164.1489" x2="1311.4946" y1="642.877" y2="642.877"/><text fill="#000000" font-family="sans-serif" font-size="11" font-weight="bold" lengthAdjust="spacing" textLength="58.8833" x="169.1489" y="653.5117">[cache hit]</text><polygon fill="#181818" points="231.124,674.1426,221.124,678.1426,231.124,682.1426,227.124,678.1426" style="stroke:#181818;stroke-width:1.0;"/><line style="stroke:#181818;stroke-width:1.0;stroke-dasharray:2.0,2.0;" x1="225.124" x2="987.4692" y1="678.1426" y2="678.1426"/><text fill="#000000" font-family="sans-serif" font-size="13" lengthAdjust="spacing" textLength="334.585" x="237.124" y="673.4004">stored judgement (re-reasoned under current policy)</text><polygon fill="#181818" points="1362.2832,710.4531,1372.2832,714.4531,1362.2832,718.4531,1366.2832,714.4531" style="stroke:#181818;stroke-width:1.0;"/><line style="stroke:#181818;stroke-width:1.0;" x1="220.124" x2="1368.2832" y1="714.4531" y2="714.4531"/><text fill="#000000" font-family="sans-serif" font-size="13" lengthAdjust="spacing" textLength="191.3755" x="227.124" y="709.7109">merge floors (max, never min)</text><line style="stroke:#181818;stroke-width:1.0;stroke-dasharray:2.0,2.0;" x1="1384.2832" x2="1426.2832" y1="743.7637" y2="743.7637"/><line style="stroke:#181818;stroke-width:1.0;stroke-dasharray:2.0,2.0;" x1="1426.2832" x2="1426.2832" y1="743.7637" y2="756.7637"/><line style="stroke:#181818;stroke-width:1.0;stroke-dasharray:2.0,2.0;" x1="1385.2832" x2="1426.2832" y1="756.7637" y2="756.7637"/><polygon fill="#181818" points="1395.2832,752.7637,1385.2832,756.7637,1395.2832,760.7637,1391.2832,756.7637" style="stroke:#181818;stroke-width:1.0;"/><text fill="#000000" font-family="sans-serif" font-size="13" lengthAdjust="spacing" textLength="259.7778" x="1391.2832" y="739.0215">escalate on low confidence (only upward)</text><polygon fill="#181818" points="231.124,782.0742,221.124,786.0742,231.124,790.0742,227.124,786.0742" style="stroke:#181818;stroke-width:1.0;"/><line style="stroke:#181818;stroke-width:1.0;stroke-dasharray:2.0,2.0;" x1="225.124" x2="1378.2832" y1="786.0742" y2="786.0742"/><text fill="#000000" font-family="sans-serif" font-size="13" lengthAdjust="spacing" textLength="208.4126" x="237.124" y="781.332">tier + model (first matching rule)</text><polygon fill="#181818" points="1661.061,826.6953,1671.061,830.6953,1661.061,834.6953,1665.061,830.6953" style="stroke:#181818;stroke-width:1.0;"/><line style="stroke:#181818;stroke-width:1.0;" x1="220.124" x2="1667.061" y1="830.6953" y2="830.6953"/><text fill="#000000" font-family="sans-serif" font-size="13" lengthAdjust="spacing" textLength="255.6836" x="227.124" y="810.6426">DecisionRecord &#8212; full soft distributions,</text><text fill="#000000" font-family="sans-serif" font-size="13" lengthAdjust="spacing" textLength="278.7065" x="227.124" y="825.9531">not just the argmax. This is the training set.</text><polygon fill="#181818" points="38.7524,856.0059,28.7524,860.0059,38.7524,864.0059,34.7524,860.0059" style="stroke:#181818;stroke-width:1.0;"/><line style="stroke:#181818;stroke-width:1.0;stroke-dasharray:2.0,2.0;" x1="32.7524" x2="219.124" y1="860.0059" y2="860.0059"/><text fill="#000000" font-family="sans-serif" font-size="13" lengthAdjust="spacing" textLength="130.0381" x="44.7524" y="855.2637">routed to tier/model</text><!--SRC=[RLN1Rjiu4BthAmOvsOxiJOm2HNCe4AT1jqZW64bQO8400KsD9SOKgIMfs0Pow4Vq2_TBzf6I0tkx5ykIvisyUM-62YfefiUAoV7VBVj0ZGWL_VFp5x4ggq0-SED96HAqKbikoBg2NPO96QoZaokjs8GJ4fwkiaQueAHgX0bqqZXRDy5FcjsJuQrartHXryTXfGYSOhJOiQDp6XGSsDNAA8-eOS9yFVyTzEovnesI1-Wf3VPFU-3q62Y5h6AvzFBc-DrIo3MRuicyy2kzKMtb6fSYqj0QZR-HhqHXDmax-q-pLYkvIqnSgzdJAR6NGekWh4c0nJ50sx9KfdpsogmJh62fF8BzvCLRenFcDikkQFoPhkdYtPv1pTwB4YKWV-1j64Ohr2iKWRJNDExZbxP5pe8yY75EjTZIXxEpCvALS3uh-00KKP-XCL3WR0QZaHERqOXwrmuAm0U4ZVVHqob5i-8a-0kwRIkJqxVPvHpQ5UDF7_CdC__p8TsSd-Sq_pQ_ewHEJfF9P9yfalsAv3_O5KgYmPKo1QH1r4fRP4QQbNMIdxM5eZajSLtxvzwkuM4luDStCqLMuJsq-gsTDDnzBcF9SDXOjpveSfe1FjvdwKoFqbYNZ7MCVmNe6Nx5p7LqCECTomj8lICdbEUEVqwmSuUV9rEpyAs3AT8fpBWI-q9HWuT-S2yJwnfRTTJPDCkCnHyRQrvdHAFHu_ttXqUQtNsVVxcy_miTniRK2eiRAWHrAz7HYvs62ge2A9sD9IPq5yCsaMXYY3iQWHrgSl4k5vq2ShIIj68HsauBeRNTQ3n6KpK7KOWWaW2bdMHm9vRbtfCRD0b1rcr3WsvV2Bt4cOUddPavxUllo-SKRAEann3gG6bzgLRUWzHDJ3f3qhWw1Gy-KDgGk4D3l7wNReQRMP8vCe3jQkb4BE7jAgJzTchP9bngzG386k9qHIiLkfgzNHv3ZnmlRL5oD8i6ZiSE1bk3nt7t7CdMkVYgwtOO1UcrM213pQxiPyHZhSLsFr4G-c3d5jaY5OsG_ao9Xa7A3KbhLcZTIAP1yh1jDi9X9nRlF8D2njEuXApZRZcS8RK8CWv3siQZ1Lhq_6w1_DAVIFTftjDmhLgj_qSsR2XyXXR87QT8k1BjJF1PKVXq-FGiO2LChEavJFfpwYgUQxQDNWIRcFwHUFuB]--></g></svg>